<?xml version="1.0" standalone="no"?>
<!DOCTYPE svg PUBLIC "-//W3C//DTD SVG 20010904//EN"
 "http://www.w3.org/TR/2001/REC-SVG-20010904/DTD/svg10.dtd">
<svg version="1.0" xmlns="http://www.w3.org/2000/svg"
 width="512.000000pt" height="512.000000pt" viewBox="0 0 512.000000 512.000000"
 preserveAspectRatio="xMidYMid meet">

<g transform="translate(0.000000,512.000000) scale(0.100000,-0.100000)"
fill="#000000" stroke="none">
<path d="M2718 5110 c-84 -14 -162 -41 -253 -87 l-90 -46 -971 -971 -971 -971
-51 -105 c-73 -149 -86 -208 -86 -370 0 -162 14 -221 86 -370 l51 -105 946
-948 c544 -545 971 -966 1005 -989 149 -102 278 -142 466 -142 161 0 243 19
384 91 88 45 102 57 434 387 l344 341 -294 287 -293 287 631 633 631 633 51
105 c72 149 86 207 86 370 0 163 -14 221 -86 370 l-51 105 -651 653 c-358 360
-679 674 -713 698 -168 121 -404 178 -605 144z m707 -2550 l-580 -580 290
-290 290 -290 -285 -285 c-157 -157 -288 -284 -292 -283 -4 2 -395 390 -870
864 l-863 861 864 872 865 872 580 -581 581 -580 -580 -580z"/>
</g>
</svg>
