<svg id="Capa_1" data-name="Capa 1" xmlns="http://www.w3.org/2000/svg" viewBox="0 0 371.78 127.53"><defs><style>.cls-1,.cls-4,.cls-5,.cls-6{font-size:25.08px;fill:#324252;font-family:Montserrat-Bold, Montserrat;font-weight:700;}.cls-1{letter-spacing:0.12em;}.cls-2,.cls-6{letter-spacing:0.11em;}.cls-3,.cls-5{letter-spacing:0.12em;}.cls-4{letter-spacing:0.12em;}.cls-7{letter-spacing:0.12em;}.cls-8{fill:#354151;}.cls-9{fill:#1dc573;}.cls-10{fill:#8edd6b;}.cls-10,.cls-11{opacity:0.8;}.cls-11{fill:#a9f26b;}</style></defs><text class="cls-1" transform="translate(95.61 114.85) scale(0.7)">GE<tspan class="cls-2" x="41.23" y="0">S</tspan><tspan class="cls-3" x="60.1" y="0">TIÓN</tspan></text><text class="cls-4" transform="translate(191.38 114.85)"> </text><text class="cls-5" transform="translate(201.01 114.85) scale(0.7)">DE</text><text class="cls-4" transform="translate(230.21 114.85)"> </text><text class="cls-6" transform="translate(239.84 114.85) scale(0.7)">G<tspan class="cls-3" x="21.67" y="0">ARANTÍ</tspan><tspan class="cls-7" x="139.3" y="0">A</tspan><tspan class="cls-3" x="160.87" y="0">S</tspan></text><path class="cls-8" d="M113.61,37.58a5.07,5.07,0,0,0-1.9,4.13A4.66,4.66,0,0,0,114,45.8q2.31,1.52,10.71,3.59t13,6.19c3.09,2.76,4.64,6.77,4.64,12.06a15.88,15.88,0,0,1-6,12.85q-5.94,4.94-15.63,4.94-14,0-25.21-10.37l7.84-9.62q9.52,8.36,17.62,8.35a9.27,9.27,0,0,0,5.69-1.56A5,5,0,0,0,128.82,68a4.92,4.92,0,0,0-2.19-4.22q-2.19-1.56-8.68-3.16-10.29-2.45-15-6.37T98.14,42q0-8.4,6-12.94t15-4.56a36.47,36.47,0,0,1,11.81,2,31.88,31.88,0,0,1,10.28,5.74l-6.66,9.61Q127,36,118.79,36A7.91,7.91,0,0,0,113.61,37.58Z"/><path class="cls-8" d="M153.61,25.48h13.15V84.42H153.61Z"/><path class="cls-8" d="M219.54,54.74h13.23V75.65q-8.76,9.78-24.28,9.78a30,30,0,0,1-21.79-8.6q-8.8-8.61-8.81-21.71a29.33,29.33,0,0,1,9-21.88,29.9,29.9,0,0,1,21.67-8.77,32.07,32.07,0,0,1,22,8.35l-6.83,9.86a26,26,0,0,0-7.29-4.76,19.58,19.58,0,0,0-7.21-1.31,17.24,17.24,0,0,0-12.64,5.1q-5.15,5.1-5.15,13.45t4.94,13.36a15.88,15.88,0,0,0,11.76,5,22.62,22.62,0,0,0,11.38-2.61Z"/><path class="cls-9" d="M282.77,54.74H296V75.65q-8.76,9.78-24.28,9.78a30,30,0,0,1-21.79-8.6q-8.81-8.61-8.81-21.71a29.33,29.33,0,0,1,9-21.88,29.9,29.9,0,0,1,21.67-8.77,32.06,32.06,0,0,1,22,8.35L287,42.68a26.22,26.22,0,0,0-7.3-4.76,19.58,19.58,0,0,0-7.21-1.31,17.26,17.26,0,0,0-12.64,5.1q-5.14,5.1-5.15,13.45t4.93,13.36a16,16,0,0,0,11.77,5,22.62,22.62,0,0,0,11.38-2.61Z"/><path class="cls-8" d="M349.2,84.42l-5.48-12.73H319l-5.48,12.73h-14L325,25.48h12.73L363.2,84.42ZM331.42,43,324,60.13h14.75Z"/><polygon class="cls-9" points="47.41 14.28 61.81 40.63 88.16 55.04 61.81 69.44 47.41 95.79 33 69.44 6.66 55.04 33 40.63 47.41 14.28"/><polygon class="cls-10" points="30.18 18.1 54.38 35.89 84.34 37.81 66.55 62.01 64.63 91.97 40.44 74.18 10.47 72.26 28.26 48.07 30.18 18.1"/><polygon class="cls-11" points="17.68 31.02 45.39 36.04 71.42 25.31 66.41 53.02 77.13 79.05 49.43 74.04 23.39 84.76 28.41 57.06 17.68 31.02"/></svg>