<?xml version="1.0" standalone="no"?>
<!DOCTYPE svg PUBLIC "-//W3C//DTD SVG 20010904//EN"
 "http://www.w3.org/TR/2001/REC-SVG-20010904/DTD/svg10.dtd">
<svg version="1.0" xmlns="http://www.w3.org/2000/svg"
 width="512.000000pt" height="512.000000pt" viewBox="0 0 512.000000 512.000000"
 preserveAspectRatio="xMidYMid meet">

<g transform="translate(0.000000,512.000000) scale(0.100000,-0.100000)"
fill="#000000" stroke="none">
<path d="M701 4014 c-97 -34 -164 -96 -208 -189 l-28 -60 0 -1205 0 -1205 29
-62 c34 -75 95 -134 174 -171 l57 -27 1835 0 1835 0 59 29 c76 37 140 101 174
174 l27 57 3 1185 c2 1166 2 1186 -18 1252 -25 84 -95 164 -178 205 l-57 28
-1830 2 c-1632 2 -1835 0 -1874 -13z m3564 -183 c-10 -17 -1555 -1295 -1600
-1325 -59 -38 -119 -44 -176 -18 -24 11 -222 168 -440 349 -217 180 -576 477
-797 658 -220 182 -401 333 -401 338 -1 4 769 7 1710 7 1048 0 1708 -4 1704
-9z m191 -2419 c-7 -6 -1397 1141 -1393 1151 1 4 315 266 697 582 l695 574 3
-1151 c1 -633 0 -1153 -2 -1156z m-3093 1726 c381 -314 692 -576 692 -582 0
-8 -1103 -925 -1337 -1112 l-58 -45 0 1155 c0 636 3 1156 6 1156 3 0 317 -257
697 -572z m916 -746 c141 -118 294 -150 432 -91 27 12 80 46 117 75 57 46 69
52 84 41 46 -32 1357 -1123 1358 -1129 0 -5 -769 -8 -1710 -8 -940 0 -1710 3
-1709 8 0 6 1369 1141 1378 1142 2 0 24 -17 50 -38z"/>
</g>
</svg>
