<svg id="Capa_1" data-name="Capa 1" xmlns="http://www.w3.org/2000/svg" xmlns:xlink="http://www.w3.org/1999/xlink" viewBox="0 0 141.73 141.73"><defs><style>.cls-1{fill:url(#Degradado_sin_nombre_28);}.cls-2{fill:url(#Degradado_sin_nombre_28-2);}.cls-3{fill:#fff;}</style><linearGradient id="Degradado_sin_nombre_28" x1="51.62" y1="86.04" x2="90.61" y2="86.04" gradientUnits="userSpaceOnUse"><stop offset="0" stop-color="#17ffa0"/><stop offset="0.13" stop-color="#18faa3"/><stop offset="0.29" stop-color="#1aeaac"/><stop offset="0.48" stop-color="#1dd1bb"/><stop offset="0.67" stop-color="#22add1"/><stop offset="0.87" stop-color="#2880eb"/><stop offset="1" stop-color="#2d5fff"/></linearGradient><linearGradient id="Degradado_sin_nombre_28-2" x1="50.84" y1="55.67" x2="89.77" y2="55.67" xlink:href="#Degradado_sin_nombre_28"/></defs><path class="cls-1" d="M83.92,51.84c1.94,3.31,3.87,6.55,5.76,9.82a4.36,4.36,0,0,1,.92,1.91A4.19,4.19,0,0,1,89.93,66q-4.32,7.44-8.61,14.89l-13.83,24-8.43,14.58c-.06.1-.11.21-.18.31-.42.64-.51.64-.91,0l-6-10.19c-.68-1.16-.25-2.23.31-3.25.85-1.55,1.76-3.07,2.64-4.6l12.69-22C72.81,70.72,83.61,52.13,83.92,51.84Z"/><path class="cls-2" d="M57.52,89.85,52.32,81c-.28-.47-.53-1-.85-1.41a3.17,3.17,0,0,1,0-3.75l6.92-12,13.83-24L82.4,22.24c.57-1,.66-1,1.22,0,1.84,3.13,3.63,6.29,5.55,9.37a3.41,3.41,0,0,1,0,3.83Q87,39.24,84.79,43L71.56,65.93C67.12,73.63,57.85,89.62,57.52,89.85Z"/><path class="cls-3" d="M95.18,50.27h6a2.8,2.8,0,0,1,2.65,1.5c2.07,3.58,4.2,7.12,6.27,10.7.67,1.15.21,2.29-.36,3.33-.76,1.41-1.59,2.78-2.39,4.17q-5.6,9.68-11.19,19.35a4.35,4.35,0,0,1-4,2.24c-3.43,0-6.86,0-10.28,0-.52,0-1.14.07-1.45-.37s.12-1,.38-1.44q6.69-11.61,13.39-23.21a4.86,4.86,0,0,0,0-5.41c-2-3.24-3.91-6.57-5.85-9.87-.5-.86-.42-1,.6-1Z"/><path class="cls-3" d="M46.56,91.53c-2,0-4,0-6.05,0A2.8,2.8,0,0,1,37.86,90c-2.07-3.57-4.2-7.12-6.27-10.69-.67-1.16-.2-2.3.36-3.34.76-1.41,1.59-2.78,2.39-4.17q5.59-9.68,11.19-19.35a4.35,4.35,0,0,1,4-2.24c3.43,0,6.86,0,10.29,0,.52,0,1.14-.07,1.44.37s-.12,1-.38,1.44Q54.17,63.65,47.47,75.26a4.83,4.83,0,0,0,0,5.4c2,3.24,3.9,6.57,5.84,9.87.5.86.42,1-.6,1Z"/></svg>